<svg width="106" height="30" viewBox="0 0 106 30" fill="none" xmlns="http://www.w3.org/2000/svg">
<path fill-rule="evenodd" clip-rule="evenodd" d="M104.559 11.7104C103.612 10.6208 102.285 10.0947 100.578 10.0947C98.3795 10.0947 96.4838 10.9965 94.8915 12.8376V5.05998C94.8915 4.98484 94.8535 4.94727 94.7777 4.94727H92.5029C92.4271 4.94727 92.3892 4.98484 92.3892 5.05998V24.673C92.3892 24.7481 92.4271 24.7857 92.5029 24.7857H94.7777C94.8535 24.7857 94.8915 24.7481 94.8915 24.673V17.4214C94.8915 16.67 95.081 15.881 95.4222 15.1295C95.7635 14.378 96.2943 13.7017 97.0146 13.1757C97.735 12.6497 98.6449 12.3867 99.7065 12.3867C100.882 12.3867 101.83 12.8 102.474 13.589C103.157 14.378 103.498 15.6555 103.498 17.3839V24.673C103.498 24.7481 103.536 24.7857 103.612 24.7857H105.886C105.962 24.7857 106 24.7481 106 24.673V16.3318C106 14.3405 105.507 12.7624 104.559 11.7104ZM90.721 10.4703H87.5362V7.27664C87.5362 7.20149 87.4983 7.16392 87.4225 7.16392H85.1856C85.1098 7.16392 85.0719 7.20149 85.0719 7.27664V10.4703H83.4416C83.3658 10.4703 83.3279 10.5079 83.3279 10.583V12.6871C83.3279 12.7623 83.3658 12.7998 83.4416 12.7998H85.0719V20.1265C85.0719 21.667 85.4889 22.8694 86.323 23.6584C87.0813 24.3723 88.1808 24.7856 89.4698 24.7856H90.6831C90.7589 24.7856 90.7968 24.748 90.7968 24.6729L90.721 22.6815C90.721 22.6439 90.6831 22.5688 90.6072 22.5688H89.7352C88.3324 22.5688 87.4983 21.7046 87.4983 20.2017V12.7623H90.6831C90.7589 12.7623 90.7968 12.7247 90.7968 12.6496V10.5455C90.8347 10.5079 90.7589 10.4703 90.721 10.4703ZM77.9442 10.9589C78.2096 10.8086 78.5129 10.6583 78.8162 10.5456C80.5223 9.98196 82.418 10.8837 82.418 10.8837C82.418 10.8837 81.5839 12.6872 79.9157 13.2508C79.0058 13.5514 77.9821 13.4011 77.2997 13.2132C76.5414 13.1005 76.276 13.8895 76.2002 14.8664V17.4214V17.722V18.0977V24.5978C76.2002 24.6729 76.1623 24.7105 76.0865 24.7105H73.8117C73.7358 24.7105 73.6979 24.6729 73.6979 24.5978V10.3953C73.6979 10.3201 73.7358 10.2825 73.8117 10.2825H75.9348C76.0106 10.2825 76.0485 10.3577 76.0485 10.3953L76.1623 13.1381C76.1812 13.0817 76.2097 13.0348 76.2381 12.9878C76.2665 12.9408 76.295 12.8939 76.3139 12.8375C76.3374 12.8143 76.3752 12.7481 76.4275 12.6567L76.4276 12.6565L76.4277 12.6564L76.4277 12.6563L76.4277 12.6563C76.4601 12.5997 76.498 12.5335 76.5414 12.4618C76.8068 11.9733 77.148 11.5976 77.4513 11.3346C77.5272 11.2219 77.6409 11.1467 77.7546 11.0716C77.7736 11.0716 77.7831 11.0622 77.7926 11.0528C77.802 11.0434 77.8115 11.034 77.8305 11.034C77.8494 11.0152 77.8684 11.0058 77.8873 10.9964C77.9063 10.987 77.9253 10.9776 77.9442 10.9589ZM71.2714 10.3579H69.1104C69.0346 10.3579 68.9966 10.3954 68.9966 10.4706L68.8829 13.8897C68.39 12.7625 67.6318 11.8608 66.5702 11.1469C65.5086 10.433 64.2954 10.0948 62.8926 10.0948C61.5277 10.0948 60.3145 10.433 59.215 11.1093C58.1155 11.7856 57.2435 12.6874 56.599 13.8146C55.9545 14.9793 55.6512 16.2192 55.6512 17.5718C55.6512 18.9245 55.9545 20.2019 56.599 21.3291C57.2435 22.4939 58.0776 23.3956 59.215 24.0719C60.3145 24.7483 61.5277 25.0864 62.8926 25.0864C64.2575 25.0864 65.5086 24.7483 66.5702 24.0344C67.6318 23.3205 68.39 22.4187 68.8829 21.2916L68.9966 24.7107C68.9966 24.7858 69.0346 24.8234 69.1104 24.8234H71.2714C71.3473 24.8234 71.3852 24.7858 71.3852 24.7107V10.4706C71.3852 10.3954 71.3473 10.3579 71.2714 10.3579ZM67.973 20.1644C67.518 20.9534 66.8735 21.5921 66.0773 22.043C65.2811 22.4939 64.4091 22.7569 63.4234 22.7569C62.4756 22.7569 61.6035 22.5315 60.7695 22.043C59.9733 21.5546 59.3288 20.9158 58.8738 20.1268C58.4188 19.3378 58.1534 18.4736 58.1534 17.5343C58.1534 16.6325 58.3809 15.7683 58.8738 14.9793C59.3288 14.1903 59.9733 13.5515 60.7695 13.1007C61.5656 12.6498 62.4376 12.3868 63.4234 12.3868C64.4091 12.3868 65.2811 12.6122 66.0773 13.1007C66.8735 13.5515 67.4801 14.1903 67.973 14.9793C68.4279 15.7683 68.6554 16.6325 68.6554 17.5718C68.6554 18.4736 68.4279 19.3378 67.973 20.1644ZM47.0828 10.057C48.5235 10.057 49.7746 10.4328 50.8741 11.1091C51.9736 11.823 52.8456 12.7247 53.4143 13.927C54.0209 15.0918 54.3242 16.3693 54.3242 17.7219V18.3606H42.2678C42.3057 19.6757 42.7986 20.7277 43.7085 21.5919C44.6563 22.4561 45.8316 22.8694 47.3102 22.8694C48.4097 22.8694 49.3196 22.6064 50.0779 22.1179C50.7983 21.6295 51.3291 21.0659 51.7082 20.3896C51.7461 20.352 51.8219 20.3144 51.8598 20.352L53.6039 21.2162C53.6418 21.2537 53.6797 21.3289 53.6418 21.3665C53.4143 21.7798 53.1489 22.2306 52.7698 22.6815C52.2011 23.3578 51.4428 23.9214 50.495 24.3723C49.5471 24.8232 48.4856 25.0486 47.3102 25.0486C45.8695 25.0486 44.5805 24.7104 43.4431 24.0717C42.3057 23.433 41.4337 22.5312 40.7891 21.3665C40.1446 20.2393 39.8413 18.9242 39.8413 17.4965C39.8413 16.1438 40.1446 14.9039 40.7512 13.7768C41.3578 12.6496 42.2299 11.7478 43.3293 11.0715C44.4288 10.3952 45.68 10.057 47.0828 10.057ZM42.2697 16.5196H51.8219C51.784 15.7681 51.5565 15.0542 51.1395 14.4155C50.7604 13.7768 50.1917 13.2507 49.4713 12.8374C48.7509 12.4241 47.9548 12.2363 47.0448 12.2363C46.1728 12.2363 45.3767 12.4241 44.6563 12.7999C43.936 13.1756 43.3673 13.7016 42.9502 14.3779C42.5398 15.0435 42.313 15.7454 42.2697 16.5196Z" fill="#EDE3D3"/>
<path fill-rule="evenodd" clip-rule="evenodd" d="M6.61524 27.6705C9.02282 29.2485 11.6561 30 14.8913 30C15.5684 30 16.2456 29.9624 16.9603 29.8121C18.9917 29.6618 20.4589 29.211 21.8507 28.3468C23.1298 27.5578 24.3336 26.393 25.8383 24.9277C26.1769 24.5895 26.5154 24.2514 26.8916 23.9132C28.0578 22.8236 29.5249 20.6444 29.9011 16.6617C30.1644 14.1818 29.8635 11.8148 29.4497 10.8003C28.6973 8.92165 27.0421 5.46495 24.2583 3.17301C21.2488 0.730773 18.5779 0.204753 16.3584 0.0544618C13.9508 -0.133402 11.6937 0.16718 9.47424 0.918637C8.60902 1.21922 7.25475 1.82038 5.78763 3.02272C4.28289 4.26262 2.96624 5.8031 1.8753 7.64417C0.784364 9.52281 0.182467 11.6645 0.0319931 14.0316C-0.0808625 15.835 0.10723 17.7513 0.558652 19.7426C0.934838 21.2831 1.68721 22.8236 2.891 24.2889C3.9067 25.5664 5.22335 26.7312 6.61524 27.6705ZM9.5871 1.36951C11.3176 0.768345 13.1232 0.467763 14.9665 0.467763C15.418 0.467763 15.8694 0.467763 16.3208 0.505336C17.7879 0.618054 18.9541 0.843491 20.0827 1.25679C21.4369 1.74524 22.716 2.4967 23.995 3.54873C26.7035 5.8031 28.3211 9.18466 29.1111 10.913C29.7882 12.6789 30.3901 20.0432 26.6659 23.6126C26.2897 23.9508 25.9512 24.2889 25.6126 24.6271C22.6031 27.5953 21.0608 29.0983 16.9979 29.4364C14.7785 29.6243 12.8975 29.5116 11.2047 29.1358C9.66234 28.7977 8.23283 28.1965 6.87856 27.2948C5.48668 26.393 4.24527 25.2658 3.22957 24.0259C2.06339 22.6357 1.31102 21.1328 0.972456 19.6675C0.521034 17.7513 0.332941 15.8726 0.445797 14.0691C0.558652 11.7396 1.16055 9.67311 2.21387 7.86961C4.84716 3.39844 8.27045 1.82038 9.5871 1.36951ZM8.04463 25.8671C10.076 27.2197 12.2955 27.8585 15.0793 27.8585C15.5729 27.8585 16.0995 27.8255 16.6592 27.7904L16.6593 27.7904L16.7721 27.7833C20.2736 27.4888 21.7167 26.1483 24.2858 23.7618L24.4463 23.6127L25.2739 22.7861C27.042 21.0954 27.6063 18.5028 27.7944 16.6618C27.9824 14.5953 27.7567 12.5663 27.4182 11.7022C26.9291 10.4622 25.5372 7.3437 23.0544 5.23962C21.8506 4.22516 20.5716 3.4737 19.2549 3.0604C18.3521 2.79739 17.4116 2.60953 16.2831 2.53438C14.2517 2.38409 12.3331 2.6471 10.4898 3.28584C9.73746 3.54885 8.6089 4.03729 7.36749 5.05176C6.08846 6.06623 4.95991 7.38128 4.05706 8.92176C3.1166 10.4622 2.58994 12.2657 2.47708 14.2947C2.40185 15.8352 2.55232 17.4884 2.92851 19.1791C3.22945 20.4942 3.86897 21.7717 4.88467 23.0116C5.7499 24.1012 6.84083 25.0781 8.04463 25.8671ZM10.6027 3.66157C12.0698 3.17312 13.5745 2.91011 15.1545 2.91011C15.4931 2.91011 15.8317 2.91011 16.1702 2.94768C17.2612 3.02283 18.164 3.21069 19.0292 3.4737C20.3083 3.887 21.5497 4.60089 22.7159 5.57778C25.1234 7.60671 26.4777 10.6501 26.9667 11.8524C27.531 13.3178 28.0201 19.4797 24.8977 22.4856L24.0701 23.3122L23.9331 23.4432C21.3914 25.8739 20.0972 27.1116 16.6969 27.37L16.6968 27.37C16.1326 27.4076 15.5683 27.4452 15.0417 27.4452C12.3708 27.4452 10.2265 26.844 8.23272 25.529C7.10416 24.7399 6.05084 23.8006 5.18562 22.7486C4.20754 21.5462 3.60564 20.3063 3.30469 19.0664C2.96612 17.4132 2.81565 15.7976 2.89089 14.2947C3.00374 12.3409 3.49278 10.6125 4.39563 9.10963C6.61512 5.35234 9.47413 4.03729 10.6027 3.66157ZM15.1923 25.4912C12.8976 25.4912 11.0543 24.9651 9.36146 23.838C8.38338 23.1992 7.51815 22.3726 6.8034 21.5084C5.97579 20.494 5.44913 19.4419 5.22342 18.3523C4.92248 16.9621 4.80962 15.6095 4.88486 14.332C4.99771 12.6788 5.41152 11.2135 6.16389 9.93602C6.91626 8.69611 7.8191 7.64407 8.8348 6.81747C9.8505 5.99087 10.791 5.57757 11.3552 5.3897C12.86 4.86368 14.3647 4.67582 16.0576 4.78854C17.0356 4.86368 17.788 4.9764 18.5404 5.23941C19.6689 5.61514 20.7223 6.21631 21.7003 7.08048C23.3932 8.54582 24.6346 10.8002 25.2365 12.3782C25.7255 13.6933 26.1017 18.8783 23.4308 21.4333C23.2787 21.5599 23.1437 21.7035 23.0143 21.8412C22.9516 21.9079 22.8903 21.9732 22.8289 22.0345L22.8193 22.0437C20.6435 24.142 19.4389 25.3036 16.4714 25.5287C16.0576 25.4912 15.6438 25.4912 15.1923 25.4912ZM15.2299 5.16427C13.9133 5.16427 12.7095 5.35213 11.5057 5.76543C10.6029 6.06601 8.30814 7.15563 6.50245 10.1615C5.7877 11.3638 5.3739 12.7916 5.26104 14.3696C5.18581 15.6095 5.29866 16.9246 5.59961 18.2772C5.82532 19.2917 6.35198 20.3061 7.10435 21.2454C7.78148 22.1096 8.64671 22.8611 9.58717 23.4998C11.2048 24.5894 12.9728 25.0779 15.1923 25.0779C15.6061 25.0779 16.0199 25.0779 16.4337 25.0403C19.2551 24.8149 20.3461 23.7628 22.5279 21.6587C22.5893 21.5975 22.6546 21.5363 22.7213 21.4737L22.7214 21.4736C22.8593 21.3443 23.0031 21.2095 23.1298 21.0576C24.4841 19.7425 24.9355 17.7512 25.086 16.3234C25.2741 14.4823 25.0108 12.9794 24.8227 12.4534C24.2584 10.9129 23.0546 8.73369 21.3994 7.30592C20.4589 6.47932 19.4432 5.91572 18.3899 5.57757C17.6752 5.35213 16.9228 5.20184 16.0199 5.16427H15.2299ZM10.5276 21.997C11.8442 22.8988 13.3113 23.3121 15.1546 23.3121H15.1547C15.4556 23.3121 15.7565 23.3121 16.0199 23.3496C18.3898 23.1994 19.4431 22.2225 21.136 20.5693L21.5122 20.1935C22.6031 19.1039 23.0169 17.4883 23.1298 16.3235C23.2802 14.8582 23.0921 13.6183 22.9417 13.1674C22.6407 12.2657 21.7003 10.3494 20.2331 9.0344C19.5184 8.35809 18.6155 7.83207 17.7127 7.53149C17.1484 7.34362 16.5089 7.2309 15.7189 7.19333C14.4023 7.11819 13.2361 7.30605 12.1075 7.68178C11.3928 7.90721 9.51185 8.77139 8.08235 11.1761C7.51807 12.1529 7.14188 13.3177 7.06665 14.5952C6.99141 15.5721 7.10427 16.6617 7.32998 17.7513C7.66854 19.2918 8.83472 20.8698 10.5276 21.997ZM12.258 8.05751C13.1608 7.71935 14.1013 7.56906 15.1546 7.56906C15.3427 7.56906 15.5308 7.56906 15.7565 7.60663C16.4713 7.6442 17.0732 7.71935 17.6375 7.90721C18.4651 8.17022 19.2927 8.65867 20.0074 9.29741C21.3993 10.5749 22.3021 12.416 22.6031 13.2801C22.716 13.6934 22.904 14.8582 22.7536 16.2484C22.6407 17.338 22.2645 18.8785 21.2488 19.8554C21.1723 19.9573 21.0785 20.0419 20.9908 20.121C20.9492 20.1586 20.909 20.1948 20.8726 20.2311L20.8619 20.2413C19.1758 21.8505 18.2347 22.7488 16.0199 22.8988C13.838 23.0491 12.2204 22.6733 10.7533 21.6964C9.17329 20.6444 8.00711 19.1415 7.70616 17.6761C7.48045 16.6241 7.40521 15.6096 7.48045 14.6328C7.55569 13.4304 7.89426 12.3408 8.45853 11.4015C9.8128 9.10955 11.5809 8.28294 12.258 8.05751ZM15.3428 20.7946C13.9885 20.7946 12.86 20.494 11.8819 19.8177C10.6781 19.0287 9.85047 17.8639 9.62476 16.7743C9.39905 15.7223 9.21096 13.7309 10.2267 12.0401C11.2424 10.3869 12.559 9.78575 13.048 9.59789C13.8004 9.33488 14.628 9.22216 15.5685 9.25973C16.1704 9.2973 16.6594 9.37245 17.0732 9.48517C17.7504 9.7106 18.4651 10.1239 18.9542 10.6499C19.8946 11.5517 20.6094 12.8291 20.8351 13.6182C20.9479 14.0315 21.0232 14.9332 20.9103 15.8725C20.7975 16.6991 20.5341 17.8263 19.7441 18.5778L19.5937 18.7281C18.3146 19.968 17.5247 20.7194 15.7942 20.7946H15.3428ZM15.2675 9.63546C14.5152 9.63546 13.838 9.74818 13.1985 9.97361C12.7471 10.1239 11.5433 10.6875 10.5652 12.2656C10.1514 12.9419 9.54952 14.4072 10.0009 16.6991C10.2267 17.7136 10.979 18.7657 12.1076 19.4795C13.1233 20.1558 14.2518 20.4189 15.7566 20.3813C17.3315 20.3081 18.0149 19.6651 19.2303 18.5216L19.3303 18.4275L19.4808 18.2772C20.1956 17.6009 20.4589 16.5489 20.5341 15.7974C20.647 14.8581 20.5341 14.0315 20.4589 13.7309C20.2332 12.9794 19.556 11.7771 18.6532 10.9129C18.1642 10.4621 17.5247 10.0488 16.9228 9.8609C16.5466 9.74818 16.0951 9.67303 15.5309 9.63546H15.2675ZM13.048 18.0144C13.6499 18.4652 14.3646 18.6531 15.3051 18.6531C16.4433 18.6531 17.0798 18.0804 17.8093 17.4241L17.8632 17.3756C18.6908 16.5866 18.6908 14.971 18.5779 14.4825C18.4651 13.9189 17.976 13.1675 17.5246 12.6415C17.186 12.2657 16.6218 11.9276 16.2456 11.8148C15.8694 11.7021 15.5308 11.627 15.1923 11.6646H15.117C14.628 11.7021 14.2142 11.7397 13.8004 11.89C13.4618 12.0403 12.747 12.3784 12.1828 13.2802C11.5056 14.2947 11.6185 15.5346 11.7313 16.1733C11.9194 17.1502 12.7094 17.7889 13.048 18.0144ZM12.1075 16.0982C11.9947 15.5346 11.9194 14.4074 12.4837 13.5056C13.0104 12.7166 13.6123 12.3784 13.9132 12.2657C14.2894 12.153 14.6656 12.1154 15.1546 12.0779H15.2299C15.4932 12.0403 15.7941 12.0779 16.0575 12.153C16.396 12.2657 16.8851 12.5287 17.1484 12.8669C17.6375 13.4305 18.0513 14.1444 18.1265 14.5201C18.2394 14.971 18.2017 16.3987 17.5246 17.0375C16.7346 17.7889 16.208 18.2398 15.2675 18.2398C14.4399 18.2398 13.8004 18.0519 13.2361 17.6762C12.3709 17.075 12.1452 16.3612 12.1075 16.0982ZM15.1922 16.3988C15.1169 16.3988 15.0417 16.3988 14.9665 16.3612C14.1389 16.0982 14.026 15.6098 13.9884 15.4219C13.9508 14.9335 14.0636 14.5577 14.2893 14.3323C14.4774 14.1444 14.6655 14.0317 14.9665 13.9566C15.1546 13.919 15.3803 13.919 15.5307 13.9941C15.5684 13.9941 16.095 14.182 16.2079 14.5577C16.2079 14.6127 16.228 14.6476 16.2536 14.6918L16.2536 14.6919C16.263 14.708 16.273 14.7255 16.2831 14.7456C16.3583 14.8959 16.4336 15.0462 16.396 15.234C16.3894 15.2537 16.3817 15.2848 16.372 15.3238C16.3264 15.5081 16.2372 15.868 16.0198 16.0231C15.9069 16.1358 15.5307 16.3988 15.1922 16.3988ZM15.0793 14.3323C14.8536 14.3699 14.7408 14.445 14.5903 14.5953C14.4398 14.708 14.4022 15.0086 14.4022 15.3468C14.4398 15.7225 14.9288 15.9103 15.0793 15.9479C15.2674 16.0231 15.5684 15.8352 15.7941 15.6473C15.8693 15.5722 15.9822 15.3092 16.0198 15.0837C16.0198 15.0462 15.9822 14.9335 15.9445 14.8583C15.9257 14.8208 15.9069 14.7738 15.8881 14.7269L15.8881 14.7268L15.8881 14.7268C15.8693 14.6798 15.8505 14.6329 15.8317 14.5953C15.7941 14.5202 15.5684 14.3699 15.4179 14.2947C15.3427 14.3323 15.1922 14.3323 15.0793 14.3323H15.0793Z" fill="#EDE3D3"/>
</svg>
